<svg width="154" height="151" viewBox="0 0 154 151" fill="none" xmlns="http://www.w3.org/2000/svg">
<path d="M31.4066 120.205L5.06088 94.3723C1.9358 91.2313 0 86.7904 0 82.4497C0 80.4401 1.15499 77.2986 2.02664 75.5002L26.3457 25.833L31.4066 120.205Z" fill="#01579B"/>
<path d="M121.584 30.7952L95.2385 4.96236C92.9406 2.69736 88.151 0 84.0977 0C80.6111 0 77.1918 0.688348 74.9841 1.98718L26.3574 25.8328L121.584 30.7952ZM62.8135 151H126.645V124.179L79.026 109.27L35.4602 124.179L62.8135 151Z" fill="#40C4FF"/>
<path d="M26.3477 106.295C26.3477 114.266 27.3667 116.22 31.4085 120.205L35.4618 124.179H126.647L82.0733 74.5118L26.3477 25.832V106.295Z" fill="#29B6F6"/>
<path d="M107.4 25.8223H26.3477L126.647 124.169H154V62.579L121.574 30.7846C117.023 26.3107 112.981 25.8223 107.4 25.8223Z" fill="#01579B"/>
<path opacity="0.2" d="M32.4269 121.193C28.3736 117.208 27.366 113.278 27.366 106.295V26.82L26.3584 25.832V106.294C26.3464 113.277 26.3464 115.209 32.4269 121.192L35.4612 124.167L32.4269 121.193Z" fill="white"/>
<path opacity="0.2" d="M152.988 61.5898V123.18H125.635L126.642 124.179H153.996V62.5778L152.988 61.5898Z" fill="#263238"/>
<path opacity="0.2" d="M121.584 30.7954C116.558 25.866 112.448 25.833 106.391 25.833H26.3574L27.365 26.821H106.391C109.414 26.821 117.044 26.3214 121.584 30.7954Z" fill="white"/>
<path opacity="0.2" d="M152.989 61.5903L121.583 30.7946L95.2372 4.96294C92.9392 2.69735 88.1496 0 84.0963 0C80.6097 0 77.1905 0.688348 74.9828 1.98718L26.3561 25.8328L2.03701 75.5C1.16475 77.3096 0.00976562 80.4511 0.00976562 82.4495C0.00976562 86.7902 1.9576 91.2193 5.07125 94.372L29.3446 118.007C29.9221 118.706 30.6019 119.417 31.4055 120.205L32.4131 121.193L35.4474 124.168L61.7931 150.001L62.8007 150.989H126.62V124.169H153.974V62.5777L152.989 61.5903Z" fill="url(#paint0_radial_680_46)"/>
<defs>
<radialGradient id="paint0_radial_680_46" cx="0" cy="0" r="1" gradientUnits="userSpaceOnUse" gradientTransform="translate(7698.2 7548.61) scale(7698.81 7548.91)">
<stop stop-color="white" stop-opacity="0.1"/>
<stop offset="1" stop-color="white" stop-opacity="0"/>
</radialGradient>
</defs>
</svg>
