<svg width="128" height="145" viewBox="0 0 128 145" fill="none" xmlns="http://www.w3.org/2000/svg">
<path d="M127.55 0L115.93 130.188L63.697 144.67L11.608 130.208L0 0H127.55Z" fill="#E44D26"/>
<path d="M63.998 132.983L106.205 121.281L116.135 10.0293H63.998V132.983Z" fill="#F16529"/>
<path d="M41.4098 41.9685H63.9989V25.999H23.959L24.341 30.2833L28.2658 74.291H63.9989V58.3215H42.8692L41.4098 41.9685ZM45.0087 82.276H28.9793L31.2162 107.351L63.9254 116.431L63.9989 116.411V99.7961L63.9289 99.8146L46.1456 95.0123L45.0087 82.276Z" fill="#EBEBEB"/>
<path d="M63.9419 74.291H83.6046L81.7507 95.0023L63.9414 99.8096V116.424L96.6766 107.351L96.9166 104.652L100.669 62.6098L101.059 58.3215H63.9419V74.291ZM63.9419 41.9295V41.9685H102.512L102.832 38.3793L103.56 30.2833L103.941 25.999H63.9419V41.9295Z" fill="white"/>
</svg>
