<svg width="128" height="145" viewBox="0 0 128 145" fill="none" xmlns="http://www.w3.org/2000/svg">
<path d="M21.2583 0C15.6203 0 10.2131 2.54033 6.22642 7.06214C2.23971 11.584 0 17.7169 0 24.1117V120.558C0 126.953 2.23971 133.086 6.22642 137.608C10.2131 142.13 15.6203 144.67 21.2583 144.67H106.292C111.93 144.67 117.337 142.13 121.324 137.608C125.31 133.086 127.55 126.953 127.55 120.558V24.1117C127.55 17.7169 125.31 11.584 121.324 7.06214C117.337 2.54033 111.93 0 106.292 0H21.2583ZM73.2279 104.926C78.3299 109.588 83.4224 111.886 88.5055 111.822C91.6234 111.822 94.0138 111.174 95.6767 109.877C96.4509 109.307 97.0809 108.518 97.5046 107.588C97.9283 106.658 98.1311 105.618 98.093 104.572C98.1038 103.431 97.8936 102.302 97.4773 101.263C97.061 100.224 96.4488 99.3015 95.6838 98.5604C94.0209 96.9155 90.8746 95.2652 86.2451 93.6095C80.6848 91.7878 76.3977 89.4302 73.3838 86.5368C70.4265 83.6434 68.9195 79.606 68.8628 74.4247C68.8628 69.5327 70.7336 65.4364 74.475 62.1358C78.1126 58.8351 82.7658 57.1848 88.4347 57.1848C96.3333 57.1848 102.671 59.3656 107.447 63.7271L101.99 73.3638C100.026 71.6312 97.7718 70.368 95.3649 69.6506C93.2019 68.8286 90.942 68.3815 88.6614 68.3244C85.9687 68.3244 83.8122 68.8844 82.1918 70.0042C80.5856 71.1294 79.7825 72.6029 79.7825 74.4247C79.7825 76.4286 80.7675 78.1379 82.7374 79.5524C84.7215 80.9134 88.0993 82.4163 92.8706 84.0613C98.6387 86.0063 102.744 88.5997 105.186 91.8413C107.629 95.083 108.85 99.2088 108.85 104.219C108.85 109.346 107.109 113.767 103.627 117.48C100.198 121.134 95.209 123.05 88.6614 123.227C80.0872 123.227 72.9161 120.309 67.148 114.474L73.2279 104.926ZM34.0417 110.054C35.7046 111.232 37.7052 111.822 40.0436 111.822C42.486 111.822 44.5126 111.026 46.1235 109.435C47.7297 107.784 48.5351 104.926 48.5399 100.859V58.2457H59.0627V103.158C58.9068 110.113 57.14 115.122 53.7623 118.187C51.9141 119.96 49.7654 121.283 47.4486 122.077C45.3002 122.819 43.0688 123.206 40.8231 123.227C36.9257 123.227 33.4701 122.46 30.4561 120.928C27.2343 119.283 24.5321 116.366 22.3496 112.176L29.6766 105.368C31.023 107.431 32.478 108.993 34.0417 110.054Z" fill="#FF7700"/>
</svg>
