<svg width="155" height="145" viewBox="0 0 155 145" fill="none" xmlns="http://www.w3.org/2000/svg">
<path fill-rule="evenodd" clip-rule="evenodd" d="M130.642 98.7828C131.297 98.3767 131.842 97.7918 132.221 97.0869C132.601 96.3819 132.802 95.5816 132.804 94.7662L132.882 67.863C132.884 67.0476 133.085 66.2472 133.465 65.5423C133.844 64.8372 134.388 64.2523 135.043 63.8464L148.55 55.4696C149.539 54.8568 150.713 54.6926 151.814 55.0128C152.915 55.3331 153.854 56.1117 154.424 57.178C154.801 57.8842 155 58.6852 155 59.5005V108.41C155 109.228 154.8 110.031 154.421 110.739C154.041 111.447 153.495 112.034 152.838 112.441L101.864 144.053C101.213 144.457 100.475 144.669 99.7244 144.67C98.9737 144.671 98.2359 144.46 97.584 144.058L57.5797 119.354C56.921 118.947 56.3735 118.36 55.9924 117.651C55.6114 116.943 55.4103 116.138 55.4096 115.319V90.6568C55.4096 90.6291 55.4402 90.6104 55.4659 90.6238C55.471 90.6275 55.477 90.6295 55.4831 90.6297C55.4893 90.6299 55.4954 90.6282 55.5007 90.6249C55.5061 90.6216 55.5104 90.6167 55.5133 90.6108C55.5162 90.6049 55.5175 90.5983 55.5171 90.5916V90.564C55.5171 90.5452 55.5262 90.5265 55.5436 90.5176L88.4904 70.0811C88.5202 70.0624 88.5069 70.0115 88.473 70.0115C88.4639 70.0113 88.4552 70.0072 88.4487 70.0003C88.4423 69.9933 88.4385 69.9839 88.4383 69.974L88.5028 45.795C88.5065 44.9772 88.31 44.173 87.9333 43.4636C87.5566 42.7542 87.013 42.1649 86.3576 41.7551C85.7026 41.3449 84.9589 41.1285 84.2017 41.1277C83.4445 41.1269 82.7004 41.3418 82.0447 41.7507L57.5582 56.9852C56.9045 57.3911 56.1637 57.6047 55.4096 57.6047C54.6556 57.6047 53.9147 57.3911 53.2611 56.9852L28.6968 41.7132C28.0425 41.306 27.3005 41.0919 26.5452 41.0923C25.79 41.0928 25.0482 41.3077 24.3942 41.7156C23.7403 42.1235 23.1972 42.7099 22.8196 43.4161C22.442 44.1223 22.2431 44.9233 22.2429 45.7387V89.4384C22.2437 90.253 22.0462 91.0534 21.6702 91.7596C21.2942 92.4658 20.7529 93.0528 20.1006 93.462C19.4483 93.8712 18.7078 94.088 17.9534 94.0909C17.199 94.0937 16.4571 93.8825 15.8022 93.4782L2.17006 85.0639C1.50975 84.6568 0.961094 84.0681 0.579919 83.3577C0.198745 82.6473 -0.00134488 81.8406 6.80319e-06 81.0196L0.120703 4.6391C0.122298 3.82481 0.321971 3.02527 0.699733 2.3205C1.07749 1.61573 1.62009 1.03046 2.27321 0.623285C2.92632 0.216108 3.66704 0.00130751 4.42122 0.000386352C5.17539 -0.00053481 5.91656 0.212457 6.57053 0.618038L53.2652 29.5759C53.9177 29.9806 54.6571 30.1936 55.4096 30.1936C56.1622 30.1936 56.9015 29.9806 57.5541 29.5759L104.236 0.618038C105.226 0.00404477 106.401 -0.160528 107.502 0.160513C108.604 0.481553 109.543 1.26192 110.112 2.33C110.489 3.03603 110.686 3.83757 110.686 4.65338V81.0518C110.686 81.8691 110.487 82.6721 110.108 83.3797C109.729 84.0874 109.185 84.6748 108.529 85.0827L84.0808 100.284C83.4245 100.693 82.8797 101.282 82.5013 101.991C82.1229 102.7 81.9244 103.505 81.9257 104.323C81.9272 105.141 82.1289 105.945 82.5104 106.652C82.8919 107.359 83.4396 107.945 84.0982 108.35L97.584 116.639C98.2355 117.04 98.9729 117.25 99.7229 117.249C100.473 117.247 101.21 117.034 101.86 116.63L130.642 98.7828ZM133.471 30.2498C133.472 31.0718 133.675 31.8789 134.059 32.5888C134.443 33.2987 134.994 33.8862 135.656 34.2914C136.319 34.6966 137.069 34.9046 137.831 34.8945C138.592 34.8843 139.338 34.6561 139.991 34.2334L152.908 25.8655C153.545 25.4527 154.073 24.869 154.439 24.1709C154.806 23.4729 154.999 22.6844 155 21.8819V4.82922C154.998 4.21465 154.884 3.60652 154.664 3.03991C154.443 2.47331 154.121 1.95945 153.716 1.52801C153.31 1.09657 152.83 0.756087 152.302 0.526214C151.774 0.296341 151.209 0.181631 150.64 0.188705C149.879 0.199017 149.134 0.426922 148.481 0.849214L135.564 9.21713C134.926 9.62952 134.398 10.2133 134.031 10.9116C133.664 11.6099 133.472 12.3989 133.471 13.2016V30.2534V30.2498Z" fill="#007FFF"/>
</svg>
