<svg width="350" height="42" viewBox="0 0 350 42" fill="none" xmlns="http://www.w3.org/2000/svg">
<path d="M29.9609 6.375C29.9062 7.45052 29.6055 8.48047 29.0586 9.46484C28.5117 10.431 27.8919 11.3698 27.1992 12.2812C26.8529 12.737 26.5247 13.1927 26.2148 13.6484C24.1914 16.6562 22.2227 19.6823 20.3086 22.7266C16.4622 28.8151 12.8255 35.0039 9.39844 41.293C9.16146 41.6576 8.82422 41.8581 8.38672 41.8945C7.96745 41.9492 7.61198 41.8581 7.32031 41.6211C7.02865 41.4023 6.98307 41.0833 7.18359 40.6641C10.3008 34.9583 13.5911 29.3255 17.0547 23.7656C18.7865 20.9766 20.5547 18.2148 22.3594 15.4805C23.2708 14.1133 24.1914 12.7552 25.1211 11.4062C25.2852 11.151 25.4674 10.8867 25.668 10.6133C26.2148 9.92057 26.6888 9.19141 27.0898 8.42578C20.2539 11.9622 14.4388 16.7383 9.64453 22.7539C9.13411 23.6289 8.6237 24.513 8.11328 25.4062C6.72786 27.8125 5.33333 30.2279 3.92969 32.6523C3.7474 32.944 3.48307 33.1263 3.13672 33.1992L3.08203 33.2812C2.86328 33.6641 2.54427 33.8828 2.125 33.9375C1.70573 33.974 1.35026 33.8828 1.05859 33.6641C0.766927 33.4271 0.703125 33.099 0.867188 32.6797C1.88802 30.474 3.05469 28.3503 4.36719 26.3086C3.91146 26.5273 3.47396 26.5365 3.05469 26.3359C2.63542 26.1354 2.4987 25.7617 2.64453 25.2148C3.26432 23.6289 3.9388 22.0703 4.66797 20.5391C4.75911 20.2474 4.83203 19.9557 4.88672 19.6641C4.97786 19.3177 5.17839 19.0807 5.48828 18.9531C9.04297 12.1354 13.7826 6.11068 19.707 0.878906C19.9805 0.660156 20.3177 0.541667 20.7188 0.523438C21.138 0.505208 21.4661 0.596354 21.7031 0.796875C21.9583 0.997396 21.9857 1.29818 21.7852 1.69922C21.0195 3.01172 20.263 4.32422 19.5156 5.63672C17.7292 8.73568 15.9336 11.8346 14.1289 14.9336C18.3945 11.1419 23.1159 8.07031 28.293 5.71875C28.4935 5.64583 28.7214 5.61849 28.9766 5.63672C29.2318 5.65495 29.4596 5.72786 29.6602 5.85547C29.8607 5.98307 29.9609 6.15625 29.9609 6.375ZM7.01953 20.8945C6.70964 22.0794 6.27214 23.237 5.70703 24.3672C6.29036 23.5286 6.90104 22.7174 7.53906 21.9336L15.5234 8.07031C12.1146 12.026 9.27995 16.3008 7.01953 20.8945ZM41.5547 28.7422C41.9375 28.7422 42.2383 28.8607 42.457 29.0977C42.6758 29.3164 42.7578 29.5534 42.7031 29.8086C42.6667 30.0638 42.4388 30.2096 42.0195 30.2461C41.1445 30.3008 40.2604 30.3646 39.3672 30.4375C36.1953 30.7656 33.0599 30.793 29.9609 30.5195C28.8854 30.4102 28.0378 30.0911 27.418 29.5625C26.7253 30.0365 25.9688 30.474 25.1484 30.875C24.3464 31.276 23.6081 31.4857 22.9336 31.5039C22.2591 31.5221 21.7852 31.2031 21.5117 30.5469C21.3294 29.8724 21.5117 29.2526 22.0586 28.6875C22.5872 28.1042 23.1159 27.6484 23.6445 27.3203C25.194 26.3542 26.8984 25.9167 28.7578 26.0078C29.0859 26.026 29.3229 26.1263 29.4688 26.3086C29.6146 26.4909 29.6602 26.6914 29.6055 26.9102C29.569 27.1289 29.4414 27.3021 29.2227 27.4297C29.4049 27.6484 29.3958 27.9128 29.1953 28.2227C29.0677 28.4414 29.25 28.6146 29.7422 28.7422C30.2344 28.8516 30.8542 28.9336 31.6016 28.9883C32.349 29.0247 33.0326 29.043 33.6523 29.043C34.2721 29.043 34.6367 29.043 34.7461 29.043C37.0247 28.9883 39.2943 28.888 41.5547 28.7422ZM24.9844 28.4961C24.8568 28.569 24.7109 28.6693 24.5469 28.7969C24.3828 28.9062 24.2461 29.0156 24.1367 29.125C24.0456 29.2161 24.0273 29.2799 24.082 29.3164C24.1367 29.3529 24.319 29.3255 24.6289 29.2344C25.5221 28.888 26.3698 28.3594 27.1719 27.6484C26.4062 27.7578 25.6771 28.0404 24.9844 28.4961ZM49.0195 24.3945C49.3294 24.2487 49.6484 24.2396 49.9766 24.3672C50.3229 24.4766 50.5508 24.6497 50.6602 24.8867C50.7878 25.1237 50.6875 25.3516 50.3594 25.5703C48.7005 26.6094 47.3151 27.9492 46.2031 29.5898C45.3099 30.8841 44.2708 32.0234 43.0859 33.0078C42.9036 33.1354 42.6758 33.1992 42.4023 33.1992C42.1471 33.181 41.9102 33.1081 41.6914 32.9805C41.4909 32.8346 41.3997 32.6341 41.418 32.3789C41.582 30.3737 41.8372 28.3776 42.1836 26.3906C42.2747 26.0625 42.4844 25.8529 42.8125 25.7617C43.1589 25.6523 43.4779 25.6615 43.7695 25.7891C44.0794 25.9167 44.2161 26.1536 44.1797 26.5C43.9609 27.6484 43.7878 28.806 43.6602 29.9727C44.0612 29.4805 44.4622 28.9792 44.8633 28.4688C45.957 26.8099 47.3424 25.4518 49.0195 24.3945ZM69.4453 28.7422C69.8281 28.7422 70.1289 28.8607 70.3477 29.0977C70.5664 29.3164 70.6484 29.5534 70.5938 29.8086C70.5573 30.0638 70.3294 30.2096 69.9102 30.2461C69.0352 30.3008 68.151 30.3646 67.2578 30.4375C64.0859 30.7656 60.9505 30.793 57.8516 30.5195C56.776 30.4102 55.9284 30.0911 55.3086 29.5625C54.6159 30.0365 53.8594 30.474 53.0391 30.875C52.237 31.276 51.4987 31.4857 50.8242 31.5039C50.1497 31.5221 49.6758 31.2031 49.4023 30.5469C49.2201 29.8724 49.4023 29.2526 49.9492 28.6875C50.4779 28.1042 51.0065 27.6484 51.5352 27.3203C53.0846 26.3542 54.7891 25.9167 56.6484 26.0078C56.9766 26.026 57.2135 26.1263 57.3594 26.3086C57.5052 26.4909 57.5508 26.6914 57.4961 26.9102C57.4596 27.1289 57.332 27.3021 57.1133 27.4297C57.2956 27.6484 57.2865 27.9128 57.0859 28.2227C56.9583 28.4414 57.1406 28.6146 57.6328 28.7422C58.125 28.8516 58.7448 28.9336 59.4922 28.9883C60.2396 29.0247 60.9232 29.043 61.543 29.043C62.1628 29.043 62.5273 29.043 62.6367 29.043C64.9154 28.9883 67.1849 28.888 69.4453 28.7422ZM52.875 28.4961C52.7474 28.569 52.6016 28.6693 52.4375 28.7969C52.2734 28.9062 52.1367 29.0156 52.0273 29.125C51.9362 29.2161 51.918 29.2799 51.9727 29.3164C52.0273 29.3529 52.2096 29.3255 52.5195 29.2344C53.4128 28.888 54.2604 28.3594 55.0625 27.6484C54.2969 27.7578 53.5677 28.0404 52.875 28.4961ZM98.7852 29.7266C99.168 29.7083 99.4688 29.8177 99.6875 30.0547C99.9062 30.2917 99.9883 30.5378 99.9336 30.793C99.8971 31.0299 99.6693 31.1758 99.25 31.2305C93.5443 31.6133 87.8294 31.832 82.1055 31.8867C81.6497 31.8867 81.112 31.9141 80.4922 31.9688C79.526 32.0781 78.5417 32.1237 77.5391 32.1055C76.5365 32.069 75.7161 31.832 75.0781 31.3945C74.75 31.1211 74.5586 30.8294 74.5039 30.5195C74.4674 30.2096 74.4857 29.8815 74.5586 29.5352C72.9909 30.2643 71.4688 31.1029 69.9922 32.0508C69.8099 32.1602 69.582 32.2148 69.3086 32.2148C69.0534 32.2148 68.8255 32.151 68.625 32.0234C68.4245 31.8958 68.3333 31.6953 68.3516 31.4219C68.4974 29.9453 68.8711 28.5234 69.4727 27.1562C69.6367 26.8646 69.8919 26.7005 70.2383 26.6641C70.5846 26.6276 70.8854 26.7005 71.1406 26.8828C71.4141 27.0651 71.487 27.3203 71.3594 27.6484C71.0677 28.3229 70.8307 29.0065 70.6484 29.6992C72.1979 28.8242 73.8021 28.0495 75.4609 27.375C75.625 27.3203 75.8255 27.3112 76.0625 27.3477C76.2995 27.3659 76.5 27.4388 76.6641 27.5664C76.8281 27.694 76.9102 27.8763 76.9102 28.1133C76.8737 28.2956 76.8281 28.4961 76.7734 28.7148C76.7005 29.0065 76.6458 29.2982 76.6094 29.5898C76.5911 29.8815 76.6732 30.1276 76.8555 30.3281C76.9466 30.401 77.1289 30.4466 77.4023 30.4648C77.6758 30.4831 77.9766 30.4831 78.3047 30.4648C78.651 30.4466 78.9609 30.4193 79.2344 30.3828C79.4896 30.3646 79.6628 30.3555 79.7539 30.3555C81.6862 30.3555 83.6185 30.3372 85.5508 30.3008C89.9622 30.2096 94.3737 30.0182 98.7852 29.7266ZM115.766 29.6992C116.185 29.6992 116.458 29.8268 116.586 30.082C116.714 30.3372 116.695 30.6016 116.531 30.875C116.385 31.1302 116.103 31.2669 115.684 31.2852C113.223 31.3398 110.99 31.3763 108.984 31.3945C106.997 31.4128 104.746 31.4128 102.23 31.3945C101.684 31.4128 100.964 31.3581 100.07 31.2305C99.1953 31.0846 98.4388 30.8112 97.8008 30.4102C97.1628 30.0091 96.9258 29.4076 97.0898 28.6055C97.3815 27.8398 98.0469 27.1471 99.0859 26.5273C100.143 25.8893 101.1 25.625 101.957 25.7344C102.668 25.8984 103.051 26.2266 103.105 26.7188C103.178 27.1927 103.069 27.7305 102.777 28.332C102.486 28.9154 102.167 29.4531 101.82 29.9453C102.513 29.9271 103.206 29.918 103.898 29.918C104.482 29.918 104.965 29.918 105.348 29.918C108.41 29.918 111.883 29.8451 115.766 29.6992ZM99.7969 28.3047C99.6693 28.7969 99.7057 29.1432 99.9062 29.3438C100.253 28.9062 100.553 28.4323 100.809 27.9219C100.717 27.9036 100.635 27.8854 100.562 27.8672C100.526 27.8672 100.49 27.8672 100.453 27.8672C100.326 27.9401 100.198 28.0221 100.07 28.1133C99.9792 28.168 99.888 28.2318 99.7969 28.3047ZM132.938 29.6992C133.357 29.6992 133.63 29.8268 133.758 30.082C133.885 30.3372 133.867 30.6016 133.703 30.875C133.557 31.1302 133.275 31.2669 132.855 31.2852C130.395 31.3398 128.161 31.3763 126.156 31.3945C124.169 31.4128 121.918 31.4128 119.402 31.3945C118.855 31.4128 118.135 31.3581 117.242 31.2305C116.367 31.0846 115.611 30.8112 114.973 30.4102C114.335 30.0091 114.098 29.4076 114.262 28.6055C114.553 27.8398 115.219 27.1471 116.258 26.5273C117.315 25.8893 118.272 25.625 119.129 25.7344C119.84 25.8984 120.223 26.2266 120.277 26.7188C120.35 27.1927 120.241 27.7305 119.949 28.332C119.658 28.9154 119.339 29.4531 118.992 29.9453C119.685 29.9271 120.378 29.918 121.07 29.918C121.654 29.918 122.137 29.918 122.52 29.918C125.582 29.918 129.055 29.8451 132.938 29.6992ZM116.969 28.3047C116.841 28.7969 116.878 29.1432 117.078 29.3438C117.424 28.9062 117.725 28.4323 117.98 27.9219C117.889 27.9036 117.807 27.8854 117.734 27.8672C117.698 27.8672 117.661 27.8672 117.625 27.8672C117.497 27.9401 117.37 28.0221 117.242 28.1133C117.151 28.168 117.06 28.2318 116.969 28.3047ZM145.707 10.4219C145.926 10.1849 146.199 10.0755 146.527 10.0938C146.874 10.0938 147.147 10.1849 147.348 10.3672C147.566 10.5495 147.585 10.7956 147.402 11.1055C144.595 15.2982 141.87 19.5365 139.227 23.8203C139.883 23.7474 140.53 23.6654 141.168 23.5742C141.569 23.556 141.861 23.6654 142.043 23.9023C142.225 24.1211 142.271 24.3672 142.18 24.6406C142.089 24.8958 141.824 25.0599 141.387 25.1328C140.329 25.2422 139.263 25.3607 138.188 25.4883C136.82 27.7305 135.845 29.2982 135.262 30.1914C134.842 30.8294 134.469 31.4219 134.141 31.9688C133.812 32.5156 133.402 33.2174 132.91 34.0742C132.436 34.931 131.78 36.1523 130.941 37.7383C130.741 38.0482 130.467 38.2214 130.121 38.2578C129.775 38.2943 129.483 38.2214 129.246 38.0391C128.991 37.8568 128.945 37.5924 129.109 37.2461C129.474 36.4987 129.839 35.7513 130.203 35.0039C130.951 33.5091 131.689 32.0052 132.418 30.4922C132.473 30.3828 132.536 30.3008 132.609 30.2461C132.682 30.1732 132.755 30.1276 132.828 30.1094C132.901 30.0729 132.965 30.0547 133.02 30.0547C133.092 30.0365 133.147 30.0365 133.184 30.0547C133.238 30.0547 133.266 30.0547 133.266 30.0547C133.266 30.0547 133.266 30.0456 133.266 30.0273C133.284 30.0091 133.302 29.9818 133.32 29.9453C133.357 29.9089 133.393 29.8633 133.43 29.8086C133.466 29.7539 133.512 29.681 133.566 29.5898C133.621 29.4987 133.685 29.3984 133.758 29.2891C133.831 29.1615 133.913 29.0247 134.004 28.8789C134.095 28.7148 134.204 28.5326 134.332 28.332C134.46 28.1133 134.596 27.8763 134.742 27.6211C134.906 27.3659 135.079 27.0924 135.262 26.8008C135.462 26.4909 135.672 26.1445 135.891 25.7617C135.763 25.7799 135.635 25.7982 135.508 25.8164C135.07 25.8711 134.624 25.9258 134.168 25.9805C133.931 26.0169 133.676 26.0443 133.402 26.0625C133.02 26.0625 132.737 25.9531 132.555 25.7344C132.372 25.4974 132.318 25.2513 132.391 24.9961C132.482 24.7409 132.755 24.5859 133.211 24.5312C133.32 24.513 133.43 24.4948 133.539 24.4766C133.667 24.4583 133.785 24.4492 133.895 24.4492C134.314 24.3763 134.733 24.2305 135.152 24.0117C135.371 23.9023 135.599 23.8659 135.836 23.9023C136.073 23.9388 136.283 24.0208 136.465 24.1484C136.629 24.1302 136.784 24.112 136.93 24.0938C138.661 21.2682 140.43 18.4609 142.234 15.6719C141.87 15.6172 141.596 15.4896 141.414 15.2891C141.25 15.0703 141.323 14.8151 141.633 14.5234C143.109 13.2656 144.467 11.8984 145.707 10.4219ZM164.137 29.7266C164.556 29.7266 164.829 29.8542 164.957 30.1094C165.085 30.3464 165.066 30.5924 164.902 30.8477C164.757 31.1029 164.474 31.2396 164.055 31.2578C161.284 31.2943 158.504 31.3307 155.715 31.3672C152.926 31.4036 150.146 31.4401 147.375 31.4766C147.193 31.4766 146.983 31.4857 146.746 31.5039C146.163 31.5586 145.561 31.5495 144.941 31.4766C144.322 31.4036 143.866 31.1029 143.574 30.5742C143.374 30.1003 143.374 29.6628 143.574 29.2617C141.97 30.2643 140.484 31.4492 139.117 32.8164C138.88 33.0169 138.589 33.1081 138.242 33.0898C137.896 33.0716 137.622 32.9622 137.422 32.7617C137.221 32.5612 137.23 32.2878 137.449 31.9414C138.434 30.556 139.655 28.6784 141.113 26.3086C142.59 23.9388 143.911 21.7786 145.078 19.8281C144.878 19.6823 144.759 19.5182 144.723 19.3359C144.686 19.1354 144.796 18.944 145.051 18.7617C145.853 18.2148 146.591 17.5951 147.266 16.9023C147.503 16.7018 147.794 16.6107 148.141 16.6289C148.487 16.6471 148.76 16.7656 148.961 16.9844C149.161 17.1849 149.152 17.4492 148.934 17.7773C147.694 19.4727 146.591 21.2227 145.625 23.0273C144.75 24.668 143.766 26.2721 142.672 27.8398C143.492 27.3477 144.358 26.8828 145.27 26.4453C145.434 26.3724 145.634 26.3542 145.871 26.3906C146.108 26.4271 146.318 26.5182 146.5 26.6641C146.682 26.7917 146.755 26.9648 146.719 27.1836C146.664 27.4935 146.6 27.7305 146.527 27.8945C146.473 28.0404 146.382 28.2409 146.254 28.4961C146.017 28.8789 145.762 29.2435 145.488 29.5898C145.361 30.0091 145.525 30.1276 145.98 29.9453C146.217 30.0547 146.527 30.1003 146.91 30.082C147.293 30.0638 147.676 30.0365 148.059 30C148.387 29.9453 148.669 29.918 148.906 29.918C149.891 29.8997 150.875 29.8906 151.859 29.8906L164.137 29.7266ZM182.922 28.7422C183.305 28.7422 183.605 28.8607 183.824 29.0977C184.043 29.3164 184.125 29.5534 184.07 29.8086C184.034 30.0638 183.806 30.2096 183.387 30.2461C182.512 30.3008 181.628 30.3646 180.734 30.4375C177.562 30.7656 174.427 30.793 171.328 30.5195C170.253 30.4102 169.405 30.0911 168.785 29.5625C168.092 30.0365 167.336 30.474 166.516 30.875C165.714 31.276 164.975 31.4857 164.301 31.5039C163.626 31.5221 163.152 31.2031 162.879 30.5469C162.697 29.8724 162.879 29.2526 163.426 28.6875C163.954 28.1042 164.483 27.6484 165.012 27.3203C166.561 26.3542 168.266 25.9167 170.125 26.0078C170.453 26.026 170.69 26.1263 170.836 26.3086C170.982 26.4909 171.027 26.6914 170.973 26.9102C170.936 27.1289 170.809 27.3021 170.59 27.4297C170.772 27.6484 170.763 27.9128 170.562 28.2227C170.435 28.4414 170.617 28.6146 171.109 28.7422C171.602 28.8516 172.221 28.9336 172.969 28.9883C173.716 29.0247 174.4 29.043 175.02 29.043C175.639 29.043 176.004 29.043 176.113 29.043C178.392 28.9883 180.661 28.888 182.922 28.7422ZM166.352 28.4961C166.224 28.569 166.078 28.6693 165.914 28.7969C165.75 28.9062 165.613 29.0156 165.504 29.125C165.413 29.2161 165.395 29.2799 165.449 29.3164C165.504 29.3529 165.686 29.3255 165.996 29.2344C166.889 28.888 167.737 28.3594 168.539 27.6484C167.773 27.7578 167.044 28.0404 166.352 28.4961ZM208.215 30.0547C208.634 30.0911 208.917 30.237 209.062 30.4922C209.227 30.7474 209.236 31.0026 209.09 31.2578C208.962 31.513 208.689 31.6497 208.27 31.668C201.926 31.5951 195.573 31.5312 189.211 31.4766C189.083 31.4583 188.974 31.4401 188.883 31.4219C188.865 31.4219 188.846 31.4219 188.828 31.4219C188.81 31.4219 188.792 31.4219 188.773 31.4219C187.753 31.4583 186.823 31.1484 185.984 30.4922C185.911 30.4193 185.839 30.3372 185.766 30.2461C184.982 30.7018 184.198 31.1484 183.414 31.5859C183.177 31.6953 182.885 31.7044 182.539 31.6133C182.193 31.5221 181.965 31.3307 181.855 31.0391C181.691 30.1276 181.828 29.2435 182.266 28.3867C182.685 27.5117 183.186 26.6823 183.77 25.8984C184.098 25.4609 184.38 25.0326 184.617 24.6133C186.276 21.8607 187.98 19.1354 189.73 16.4375C189.931 16.1823 190.214 16.0729 190.578 16.1094C190.943 16.1276 191.243 16.2552 191.48 16.4922C191.717 16.7292 191.745 17.0117 191.562 17.3398C190.232 19.3997 188.919 21.4688 187.625 23.5469C186.987 24.6042 186.358 25.6523 185.738 26.6914C185.629 26.8919 185.474 27.1289 185.273 27.4023C184.927 27.9128 184.59 28.4688 184.262 29.0703C184.48 28.9245 184.699 28.7878 184.918 28.6602C185.046 28.5872 185.173 28.5143 185.301 28.4414C185.319 28.2773 185.355 28.1315 185.41 28.0039C185.665 27.4023 186.139 26.9193 186.832 26.5547C187.525 26.1901 188.236 26.0807 188.965 26.2266C189.238 26.1719 189.503 26.2083 189.758 26.3359C190.031 26.4453 190.232 26.6003 190.359 26.8008C190.487 26.9831 190.478 27.1745 190.332 27.375C190.368 27.6484 190.259 27.8581 190.004 28.0039C189.767 28.1497 189.493 28.2044 189.184 28.168C188.582 28.5508 187.98 28.9245 187.379 29.2891C187.488 29.5078 187.671 29.6536 187.926 29.7266C188.181 29.7812 188.445 29.8086 188.719 29.8086C188.828 29.8268 188.928 29.8451 189.02 29.8633C189.038 29.8633 189.056 29.8633 189.074 29.8633C189.092 29.8633 189.12 29.8633 189.156 29.8633C195.5 29.9362 201.853 30 208.215 30.0547ZM218.633 25.9258C218.797 26.1445 218.833 26.3906 218.742 26.6641C218.596 27.0104 218.286 27.2201 217.812 27.293C216.19 27.4935 214.613 27.8672 213.082 28.4141C211.569 28.9427 210.238 29.8906 209.09 31.2578C208.962 31.4401 208.78 31.5768 208.543 31.668C208.306 31.7409 208.078 31.7773 207.859 31.7773C207.622 31.7773 207.422 31.7318 207.258 31.6406C207.167 31.6042 207.103 31.5312 207.066 31.4219C207.012 31.2943 207.03 31.1211 207.121 30.9023L209.254 26.5547C209.382 26.2995 209.555 26.1172 209.773 26.0078C210.01 25.8984 210.247 25.8346 210.484 25.8164C210.885 25.7982 211.177 25.8984 211.359 26.1172C211.396 26.1719 211.414 26.2448 211.414 26.3359C211.432 26.4271 211.405 26.5456 211.332 26.6914L210.867 27.6484C213.219 26.5365 215.516 25.8711 217.758 25.6523C218.141 25.5977 218.432 25.6888 218.633 25.9258ZM221.23 26.1172C220.975 26.1719 220.711 26.1628 220.438 26.0898C220.182 26.0169 219.982 25.8711 219.836 25.6523C219.672 25.3424 219.645 25.0234 219.754 24.6953C219.991 24.1302 220.41 23.8385 221.012 23.8203C221.249 23.6562 221.513 23.5833 221.805 23.6016C222.115 23.6198 222.379 23.7201 222.598 23.9023C222.98 24.2487 223.026 24.6497 222.734 25.1055C222.57 25.3424 222.352 25.5612 222.078 25.7617C221.805 25.944 221.522 26.0625 221.23 26.1172ZM224.785 29.8633C225.186 29.7721 225.496 29.8359 225.715 30.0547C225.952 30.2734 226.043 30.5286 225.988 30.8203C225.934 31.0938 225.697 31.3034 225.277 31.4492C223.983 31.7591 222.671 31.9049 221.34 31.8867C221.194 31.8867 221.039 31.8867 220.875 31.8867C220.474 31.9049 220.064 31.8958 219.645 31.8594C219.225 31.8229 218.833 31.7227 218.469 31.5586C217.867 31.194 217.566 30.7383 217.566 30.1914C217.548 29.6445 217.694 29.0885 218.004 28.5234C218.314 27.9583 218.651 27.4844 219.016 27.1016C219.253 26.8646 219.553 26.7643 219.918 26.8008C220.301 26.8372 220.592 26.974 220.793 27.2109C221.012 27.4297 220.993 27.694 220.738 28.0039C220.538 28.2409 220.337 28.4961 220.137 28.7695C219.936 29.043 219.79 29.3346 219.699 29.6445C219.626 29.9544 219.663 30.1458 219.809 30.2188C219.954 30.2734 220.155 30.2917 220.41 30.2734C220.501 30.2552 220.602 30.2461 220.711 30.2461C222.096 30.3008 223.454 30.1732 224.785 29.8633ZM246.824 28.8516C247.243 28.8698 247.499 29.0065 247.59 29.2617C247.681 29.5169 247.626 29.7721 247.426 30.0273C247.243 30.2643 246.943 30.3919 246.523 30.4102C246.487 30.4102 246.441 30.4102 246.387 30.4102C242.723 30.3372 239.04 30.3008 235.34 30.3008C235.066 30.3008 234.793 30.3008 234.52 30.3008C232.733 30.2643 230.938 30.3281 229.133 30.4922C228.477 30.5651 227.82 30.6745 227.164 30.8203C227.164 31.112 227.201 31.431 227.273 31.7773C227.328 32.0326 227.392 32.2969 227.465 32.5703C227.647 33.1719 227.738 33.7917 227.738 34.4297C227.665 35.6146 227.018 36.3164 225.797 36.5352C224.576 36.681 223.509 36.3711 222.598 35.6055C221.668 34.8398 221.413 33.819 221.832 32.543C222.488 31.1576 223.6 30.2188 225.168 29.7266C225.277 28.9427 225.605 28.2135 226.152 27.5391C226.717 26.901 227.428 26.3906 228.285 26.0078C229.142 25.625 229.926 25.6068 230.637 25.9531C230.91 26.099 231.029 26.3268 230.992 26.6367C230.992 26.6732 230.992 26.7096 230.992 26.7461C230.974 26.7826 230.965 26.819 230.965 26.8555C230.91 27.1289 230.764 27.3294 230.527 27.457C230.309 27.5664 230.062 27.612 229.789 27.5938C229.534 27.5573 229.324 27.457 229.16 27.293C228.413 27.5846 227.93 27.8945 227.711 28.2227C227.492 28.5508 227.365 28.8333 227.328 29.0703C227.328 29.1068 227.328 29.1341 227.328 29.1523C228.896 28.9336 230.263 28.8151 231.43 28.7969C231.448 28.7969 231.466 28.7969 231.484 28.7969C235.495 28.6693 239.487 28.6693 243.461 28.7969C244.591 28.8151 245.712 28.8333 246.824 28.8516ZM225.113 34.3203C225.405 34.1927 225.56 34.0378 225.578 33.8555C225.615 33.6732 225.596 33.4453 225.523 33.1719C225.432 32.8073 225.35 32.4518 225.277 32.1055C225.241 31.9049 225.214 31.7044 225.195 31.5039C225.049 31.5768 224.913 31.6406 224.785 31.6953C223.947 32.0234 223.491 32.4062 223.418 32.8438C223.345 33.2812 223.491 33.6549 223.855 33.9648C224.22 34.2747 224.639 34.3932 225.113 34.3203ZM270.996 29.7266C271.415 29.7266 271.689 29.8542 271.816 30.1094C271.944 30.3464 271.926 30.5924 271.762 30.8477C271.616 31.1029 271.333 31.2396 270.914 31.2578C268.143 31.2943 265.363 31.3307 262.574 31.3672C259.785 31.4036 257.005 31.4401 254.234 31.4766C254.052 31.4766 253.842 31.4857 253.605 31.5039C253.022 31.5586 252.421 31.5495 251.801 31.4766C251.181 31.4036 250.725 31.1029 250.434 30.5742C250.233 30.1003 250.233 29.6628 250.434 29.2617C248.829 30.2643 247.344 31.4492 245.977 32.8164C245.74 33.0169 245.448 33.1081 245.102 33.0898C244.755 33.0716 244.482 32.9622 244.281 32.7617C244.081 32.5612 244.09 32.2878 244.309 31.9414C245.293 30.556 246.514 28.6784 247.973 26.3086C249.449 23.9388 250.771 21.7786 251.938 19.8281C251.737 19.6823 251.618 19.5182 251.582 19.3359C251.546 19.1354 251.655 18.944 251.91 18.7617C252.712 18.2148 253.451 17.5951 254.125 16.9023C254.362 16.7018 254.654 16.6107 255 16.6289C255.346 16.6471 255.62 16.7656 255.82 16.9844C256.021 17.1849 256.012 17.4492 255.793 17.7773C254.553 19.4727 253.451 21.2227 252.484 23.0273C251.609 24.668 250.625 26.2721 249.531 27.8398C250.352 27.3477 251.217 26.8828 252.129 26.4453C252.293 26.3724 252.493 26.3542 252.73 26.3906C252.967 26.4271 253.177 26.5182 253.359 26.6641C253.542 26.7917 253.615 26.9648 253.578 27.1836C253.523 27.4935 253.46 27.7305 253.387 27.8945C253.332 28.0404 253.241 28.2409 253.113 28.4961C252.876 28.8789 252.621 29.2435 252.348 29.5898C252.22 30.0091 252.384 30.1276 252.84 29.9453C253.077 30.0547 253.387 30.1003 253.77 30.082C254.152 30.0638 254.535 30.0365 254.918 30C255.246 29.9453 255.529 29.918 255.766 29.918C256.75 29.8997 257.734 29.8906 258.719 29.8906L270.996 29.7266ZM300.363 29.7266C300.746 29.7083 301.047 29.8177 301.266 30.0547C301.484 30.2917 301.566 30.5378 301.512 30.793C301.475 31.0299 301.247 31.1758 300.828 31.2305C295.122 31.6133 289.408 31.832 283.684 31.8867C283.228 31.8867 282.69 31.9141 282.07 31.9688C281.104 32.0781 280.12 32.1237 279.117 32.1055C278.115 32.069 277.294 31.832 276.656 31.3945C276.328 31.1211 276.137 30.8294 276.082 30.5195C276.046 30.2096 276.064 29.8815 276.137 29.5352C274.569 30.2643 273.047 31.1029 271.57 32.0508C271.388 32.1602 271.16 32.2148 270.887 32.2148C270.632 32.2148 270.404 32.151 270.203 32.0234C270.003 31.8958 269.911 31.6953 269.93 31.4219C270.076 29.9453 270.449 28.5234 271.051 27.1562C271.215 26.8646 271.47 26.7005 271.816 26.6641C272.163 26.6276 272.464 26.7005 272.719 26.8828C272.992 27.0651 273.065 27.3203 272.938 27.6484C272.646 28.3229 272.409 29.0065 272.227 29.6992C273.776 28.8242 275.38 28.0495 277.039 27.375C277.203 27.3203 277.404 27.3112 277.641 27.3477C277.878 27.3659 278.078 27.4388 278.242 27.5664C278.406 27.694 278.488 27.8763 278.488 28.1133C278.452 28.2956 278.406 28.4961 278.352 28.7148C278.279 29.0065 278.224 29.2982 278.188 29.5898C278.169 29.8815 278.251 30.1276 278.434 30.3281C278.525 30.401 278.707 30.4466 278.98 30.4648C279.254 30.4831 279.555 30.4831 279.883 30.4648C280.229 30.4466 280.539 30.4193 280.812 30.3828C281.068 30.3646 281.241 30.3555 281.332 30.3555C283.264 30.3555 285.197 30.3372 287.129 30.3008C291.54 30.2096 295.952 30.0182 300.363 29.7266ZM318.766 28.7422C319.148 28.7422 319.449 28.8607 319.668 29.0977C319.887 29.3164 319.969 29.5534 319.914 29.8086C319.878 30.0638 319.65 30.2096 319.23 30.2461C318.355 30.3008 317.471 30.3646 316.578 30.4375C313.406 30.7656 310.271 30.793 307.172 30.5195C306.096 30.4102 305.249 30.0911 304.629 29.5625C303.936 30.0365 303.18 30.474 302.359 30.875C301.557 31.276 300.819 31.4857 300.145 31.5039C299.47 31.5221 298.996 31.2031 298.723 30.5469C298.54 29.8724 298.723 29.2526 299.27 28.6875C299.798 28.1042 300.327 27.6484 300.855 27.3203C302.405 26.3542 304.109 25.9167 305.969 26.0078C306.297 26.026 306.534 26.1263 306.68 26.3086C306.826 26.4909 306.871 26.6914 306.816 26.9102C306.78 27.1289 306.652 27.3021 306.434 27.4297C306.616 27.6484 306.607 27.9128 306.406 28.2227C306.279 28.4414 306.461 28.6146 306.953 28.7422C307.445 28.8516 308.065 28.9336 308.812 28.9883C309.56 29.0247 310.243 29.043 310.863 29.043C311.483 29.043 311.848 29.043 311.957 29.043C314.236 28.9883 316.505 28.888 318.766 28.7422ZM302.195 28.4961C302.068 28.569 301.922 28.6693 301.758 28.7969C301.594 28.9062 301.457 29.0156 301.348 29.125C301.257 29.2161 301.238 29.2799 301.293 29.3164C301.348 29.3529 301.53 29.3255 301.84 29.2344C302.733 28.888 303.581 28.3594 304.383 27.6484C303.617 27.7578 302.888 28.0404 302.195 28.4961ZM348.105 29.7266C348.488 29.7083 348.789 29.8177 349.008 30.0547C349.227 30.2917 349.309 30.5378 349.254 30.793C349.217 31.0299 348.99 31.1758 348.57 31.2305C342.865 31.6133 337.15 31.832 331.426 31.8867C330.97 31.8867 330.432 31.9141 329.812 31.9688C328.846 32.0781 327.862 32.1237 326.859 32.1055C325.857 32.069 325.036 31.832 324.398 31.3945C324.07 31.1211 323.879 30.8294 323.824 30.5195C323.788 30.2096 323.806 29.8815 323.879 29.5352C322.311 30.2643 320.789 31.1029 319.312 32.0508C319.13 32.1602 318.902 32.2148 318.629 32.2148C318.374 32.2148 318.146 32.151 317.945 32.0234C317.745 31.8958 317.654 31.6953 317.672 31.4219C317.818 29.9453 318.191 28.5234 318.793 27.1562C318.957 26.8646 319.212 26.7005 319.559 26.6641C319.905 26.6276 320.206 26.7005 320.461 26.8828C320.734 27.0651 320.807 27.3203 320.68 27.6484C320.388 28.3229 320.151 29.0065 319.969 29.6992C321.518 28.8242 323.122 28.0495 324.781 27.375C324.945 27.3203 325.146 27.3112 325.383 27.3477C325.62 27.3659 325.82 27.4388 325.984 27.5664C326.148 27.694 326.23 27.8763 326.23 28.1133C326.194 28.2956 326.148 28.4961 326.094 28.7148C326.021 29.0065 325.966 29.2982 325.93 29.5898C325.911 29.8815 325.993 30.1276 326.176 30.3281C326.267 30.401 326.449 30.4466 326.723 30.4648C326.996 30.4831 327.297 30.4831 327.625 30.4648C327.971 30.4466 328.281 30.4193 328.555 30.3828C328.81 30.3646 328.983 30.3555 329.074 30.3555C331.007 30.3555 332.939 30.3372 334.871 30.3008C339.283 30.2096 343.694 30.0182 348.105 29.7266Z" fill="black"/>
</svg>
