<svg width="168" height="145" viewBox="0 0 168 145" fill="none" xmlns="http://www.w3.org/2000/svg">
<path d="M83.7743 86.7042C92.0364 86.7042 98.7341 80.2047 98.7341 72.1873C98.7341 64.1698 92.0364 57.6704 83.7743 57.6704C75.5122 57.6704 68.8145 64.1698 68.8145 72.1873C68.8145 80.2047 75.5122 86.7042 83.7743 86.7042Z" fill="#00D8FF"/>
<path d="M83.775 105.472C65.7942 105.893 47.8586 103.541 30.6377 98.5041C22.6828 96.0571 15.2634 92.2023 8.75449 87.1345C6.26988 85.4041 4.20087 83.1721 2.68965 80.592C1.17844 78.0119 0.260863 75.1449 0 72.1879C0 62.5894 10.8668 53.1824 29.0699 47.0273C46.7519 41.5778 65.2247 38.9346 83.775 39.1998C102.078 38.9542 120.304 41.5497 137.762 46.8879C145.422 49.2607 152.589 52.929 158.933 57.7233C161.372 59.3764 163.407 61.5284 164.896 64.0275C166.385 66.5267 167.291 69.3122 167.55 72.1879C167.55 82.1639 155.403 92.2735 135.835 98.5564C118.948 103.43 101.391 105.763 83.775 105.472ZM83.775 46.1447C66.0277 45.9196 48.3563 48.4323 31.4216 53.5889C14.6666 59.2621 7.15678 67.0199 7.15678 72.1705C7.15678 77.5592 15.2291 86.0312 32.9535 91.9135C49.4275 96.7099 66.5808 98.9423 83.775 98.5273C100.628 98.8198 117.428 96.607 133.591 91.9657C151.992 86.0486 160.369 77.565 160.369 72.1879C160.066 70.343 159.373 68.579 158.333 67.007C157.293 65.435 155.928 64.089 154.326 63.0539C148.651 58.799 142.248 55.5478 135.41 53.4495C118.708 48.3651 101.278 45.8992 83.775 46.1447Z" fill="#00D8FF"/>
<path d="M49.7829 144.591C46.9915 144.653 44.233 143.996 41.7884 142.687C33.2194 137.89 30.2514 124.058 33.8477 105.68C37.8175 88.0934 44.6877 71.244 54.1931 55.7827C63.1156 40.2748 74.5354 26.2507 88.0202 14.2412C93.9651 8.98676 100.82 4.79363 108.27 1.85545C110.966 0.633365 113.905 0 116.881 0C119.856 0 122.796 0.633365 125.492 1.85545C134.402 6.83764 137.352 22.0978 133.193 41.6839C129.106 58.3179 122.414 74.2452 113.35 88.9102C104.742 104.236 93.6821 118.138 80.5822 130.098C74.4235 135.56 67.276 139.87 59.5008 142.808C56.3889 143.932 53.1029 144.535 49.7829 144.591ZM60.3925 59.2319C51.3262 74.0375 44.7415 90.1469 40.8848 106.958C37.5757 123.884 40.7532 134.064 45.3728 136.653C50.1599 139.342 61.7807 136.793 75.8908 124.831C88.3981 113.374 98.955 100.067 107.169 85.403C115.851 71.3827 122.27 56.1552 126.204 40.2497C130.117 21.8132 126.736 10.5249 121.937 7.84221C120.138 7.17447 118.216 6.87565 116.292 6.9646C114.369 7.05354 112.485 7.52833 110.759 8.359C104.127 11.0154 98.0302 14.7855 92.7476 19.4964C79.8649 31.0007 68.9567 44.4263 60.4343 59.2668L60.3925 59.2319Z" fill="#00D8FF"/>
<path d="M117.749 144.667C109.641 144.667 99.3424 139.905 88.6192 130.957C74.8997 118.837 63.287 104.646 54.2296 88.9334C44.8414 73.6859 38.0255 57.0801 34.0398 39.7444C32.3153 32.1168 31.9952 24.2533 33.0944 16.5175C33.3528 13.6487 34.2548 10.8695 35.7371 8.37481C37.2194 5.8801 39.2462 3.73027 41.6753 2.07607C50.5734 -2.92354 65.6709 2.21543 81.0795 15.4897C93.8886 27.232 104.766 40.8112 113.333 55.7537C122.716 70.6449 129.603 86.8872 133.738 103.874C135.54 111.781 135.818 119.944 134.558 127.949C134.259 130.901 133.306 133.756 131.762 136.317C130.219 138.878 128.123 141.085 125.618 142.785C123.212 144.076 120.497 144.725 117.749 144.667ZM60.423 85.4378C69.1125 100.454 80.2054 114.035 93.2867 125.673C106.745 136.909 117.42 139.324 122.01 136.706C126.797 134.005 130.327 122.984 126.689 105.152C122.704 88.9327 116.098 73.4283 107.116 59.2145C98.9405 44.9132 88.5578 31.9103 76.3282 20.6577C61.8232 8.16154 50.0588 5.36849 45.2657 8.06283C43.7726 9.24162 42.5472 10.7077 41.6666 12.3686C40.7861 14.0296 40.2695 15.8494 40.1494 17.7136C39.1987 24.6126 39.5087 31.6202 41.065 38.4147C44.8999 54.9928 51.4368 70.8707 60.4289 85.4494L60.423 85.4378Z" fill="#00D8FF"/>
</svg>
